<svg width="512" height="512" viewBox="0 0 512 512" fill="none" xmlns="http://www.w3.org/2000/svg">
<g clip-path="url(#clip0_34_42)">
<path d="M245.494 512H266.813C382.546 512 440.422 512 476.365 476.058C512.307 440.115 512 382.259 512 266.814V245.187C512 129.761 512 71.8849 476.365 35.9425C440.73 0.000101563 382.546 0 266.813 0H245.494C129.741 0 71.8848 0.000101563 35.9424 35.9425C-2.34375e-05 71.8849 0 129.72 0 245.187V266.814C0 382.259 -2.34375e-05 440.115 35.9424 476.058C71.8848 512 129.741 512 245.494 512Z" fill="black"/>
<path d="M274.747 369.15C159.301 369.15 89.2395 289.053 86.5156 155.953H144.986C146.809 253.725 191.291 295.217 225.391 303.675V155.953H281.444V240.31C314.335 236.665 348.742 198.285 360.333 155.953H415.445C406.618 208.034 369.16 246.413 342.659 262.244C369.16 275.044 411.799 308.549 428.245 369.15H367.645C354.845 328.64 323.469 297.265 281.444 293.005V369.15H274.747Z" fill="white"/>
</g>
<defs>
<clipPath id="clip0_34_42">
<rect width="512" height="512" fill="white"/>
</clipPath>
</defs>
</svg>
