<?xml version="1.0" encoding="UTF-8" standalone="no"?>
<svg
   version="1.1"
   id="Layer_1"
   x="0px"
   y="0px"
   viewBox="0 0 192 192"
   style="enable-background:new 0 0 192 192;"
   xml:space="preserve"
   sodipodi:docname="youtube_logo.svg"
   inkscape:version="1.2.1 (9c6d41e410, 2022-07-14)"
   xmlns:inkscape="http://www.inkscape.org/namespaces/inkscape"
   xmlns:sodipodi="http://sodipodi.sourceforge.net/DTD/sodipodi-0.dtd"
   xmlns="http://www.w3.org/2000/svg"
   xmlns:svg="http://www.w3.org/2000/svg"><defs
   id="defs11" /><sodipodi:namedview
   id="namedview9"
   pagecolor="#505050"
   bordercolor="#ffffff"
   borderopacity="1"
   inkscape:showpageshadow="0"
   inkscape:pageopacity="0"
   inkscape:pagecheckerboard="1"
   inkscape:deskcolor="#505050"
   showgrid="false"
   inkscape:zoom="4.359375"
   inkscape:cx="73.978495"
   inkscape:cy="96.114695"
   inkscape:window-width="1920"
   inkscape:window-height="1017"
   inkscape:window-x="-8"
   inkscape:window-y="-8"
   inkscape:window-maximized="1"
   inkscape:current-layer="g6" />
<g
   id="g6">
	<path
   id="path2"
   class="st0"
   inkscape:label="path2"
   d="M 96 34 C 96 34 40.999205 33.999222 27.199219 37.699219 C 19.599226 39.699217 13.699607 45.700398 11.599609 53.400391 C 7.999613 67.200377 8 96 8 96 C 8 96 7.9992225 124.79962 11.699219 138.59961 C 13.699217 146.1996 19.700789 152.20078 27.300781 154.30078 C 41.000768 158.00078 96 158 96 158 C 96 158 151.0008 158.00078 164.80078 154.30078 C 172.40077 152.30078 178.30039 146.2996 180.40039 138.59961 C 184.00039 124.79962 184 96 184 96 C 184 96 184.00078 67.200377 180.30078 53.400391 C 178.30078 45.800398 172.29921 39.799217 164.69922 37.699219 C 150.99923 33.999222 96 34 96 34 z M 78 69.800781 L 124 96 L 78 122.19922 L 78 69.800781 z " />
	
</g>
</svg>
